HIERARCHY
ROOT Hips
{
	OFFSET 0.00000 0.00000 0.00000
	CHANNELS 6 Xposition Yposition Zposition Yrotation Zrotation Xrotation 
	JOINT Lumbar
	{
		OFFSET 0 0 0
		CHANNELS 3 Zrotation Xrotation Yrotation
		JOINT Neck
		{
			OFFSET 0.00 0.2701 0.00
			CHANNELS 3 Zrotation Xrotation Yrotation
			End Site
			{
				OFFSET 0.00 0.1379 0.00
			}
		}
		JOINT RightShoulder
		{
			OFFSET 0.0119 0.2289 0.1181
			CHANNELS 3 Zrotation Xrotation Yrotation
			JOINT RightElbow
			{
				OFFSET 0.00 -0.1475 0.00
				CHANNELS 2 Zrotation Yrotation
				JOINT RightWrist
				{
					OFFSET 0.00 -0.1605 0.00
					CHANNELS 2 Zrotation Xrotation
					End Site
					{
						OFFSET 0.0040 -0.1068 0.0006
					}
				}
			}
		}
		JOINT LeftShoulder
		{
			OFFSET 0.0119 0.2289 -0.1181
			CHANNELS 3 Zrotation Xrotation Yrotation
			JOINT LeftElbow
			{
				OFFSET 0.00 -0.1475 0.00
				CHANNELS 2 Zrotation Yrotation
				JOINT LeftWrist
				{
					OFFSET 0.00 -0.1605 0.00
					CHANNELS 2 Zrotation Xrotation
					End Site
					{
						OFFSET 0.0040 -0.1068 -0.0006
					}
				}
			}
		}
	}
	JOINT RightHip
	{
		OFFSET 0.0316 -0.0424 0.0458
		CHANNELS 3 Zrotation Xrotation Yrotation
		JOINT RightKnee
		{
			OFFSET 0.00 -0.2438 0.00
			CHANNELS 1 Zrotation
			JOINT RightAnkle
			{
				OFFSET 0.00 -0.2449 0.00
				CHANNELS 3 Zrotation Xrotation Yrotation
				End Site
				{
					OFFSET 0.1237 -0.0542 0.0051
				}
			}
		}
	}
	JOINT LeftHip
	{
		OFFSET 0.0316 -0.0424 -0.0458
		CHANNELS 3 Zrotation Xrotation Yrotation
		JOINT LeftKnee
		{
			OFFSET 0.00 -0.2438 0.00
			CHANNELS 1 Zrotation
			JOINT LeftAnkle
			{
				OFFSET 0.00 -0.2449 0.00
				CHANNELS 3 Zrotation Xrotation Yrotation
				End Site
				{
					OFFSET 0.1237 -0.0542 -0.0051
				}
			}
		}
	}
}
MOTION
Frames: 20
Frame Time: 0.02
-0.40911 0.56656 -0.40706 901.67025 0 -2.35602 4.21606 0.56775 1.22698 -38.19121 1.02368 1.67537 31.92494 -13.30189 21.48355 86.31789 97.65659 -79.6965 -22.95283 27.0792 11.61975 -17.41031 86.76028 -104.82326 -79.66238 22.73423 14.11662 0.85595 -3.94298 -55.6003 7.04344 -0.95017 2.63957 3.62082 -2.05595 8.90266 -7.944 5.09384 5.70224 8.64038
-0.4133 0.56686 -0.40679 902.73214 0 -2.53313 4.28206 0.54302 0.87064 -38.2005 1.19499 1.53982 32.28195 -13.26818 22.2023 87.17801 97.53185 -79.69038 -22.86733 27.99292 11.86081 -19.35873 87.98626 -105.74116 -79.43422 20.35628 14.14848 1.06275 -3.78668 -52.30115 6.77765 -1.24719 1.91502 3.30127 -1.91472 8.71615 -7.99755 5.28461 5.53432 8.0545
-0.41746 0.56713 -0.40666 903.87031 0 -2.70688 4.36425 0.51986 0.4805 -38.17941 1.36616 1.39233 32.57911 -13.22201 22.90357 87.9923 97.57698 -79.6785 -22.7146 28.90329 12.15889 -21.49558 89.43797 -107.00518 -79.10125 17.32118 13.85616 1.31307 -3.41983 -48.0216 5.85969 -1.62537 1.14745 2.98738 -1.74608 8.55113 -8.04605 5.47466 5.31896 7.34757
-0.42164 0.56741 -0.40647 904.96101 0 -2.88205 4.44523 0.50104 0.11703 -38.18216 1.53163 1.24905 32.91327 -13.1782 23.6088 88.8136 97.61748 -79.66321 -22.52832 29.8259 12.4371 -23.53892 90.77645 -108.03092 -78.76271 14.65552 13.70646 1.54427 -3.09859 -44.21664 5.24585 -1.96479 0.37648 2.67085 -1.58898 8.36743 -8.09899 5.66595 5.13329 6.71343
-0.4258 0.56769 -0.40628 906.11227 0 -3.06127 4.50098 0.46402 -0.29595 -38.14572 1.72301 1.10984 33.21091 -13.14898 24.33362 89.68733 97.372 -79.67237 -22.60194 30.71143 12.68903 -25.62734 92.1654 -109.39302 -78.64438 11.68894 13.56778 1.7793 -2.9828 -40.24817 4.61424 -2.31431 -0.31298 2.35526 -1.43202 8.21793 -8.14265 5.85196 4.91276 6.0039
-0.42998 0.56796 -0.40611 907.15213 0 -3.22998 4.6128 0.46438 -0.61348 -38.18194 1.85957 0.96011 33.56784 -13.08637 25.01214 90.44309 97.74546 -79.63048 -22.13154 31.66746 13.00847 -27.65799 93.49972 -110.14201 -78.04777 9.19429 13.33192 2.01366 -2.39982 -36.40914 3.86188 -2.66013 -1.17141 2.0389 -1.26944 8.00436 -8.20438 6.04916 4.7536 5.42301
-0.43427 0.56819 -0.40593 907.87612 0 -3.36893 4.87611 0.56391 -0.65504 -38.43243 1.84736 0.77939 34.11126 -12.93199 25.5701 90.88628 99.90151 -79.43837 -20.06097 32.85331 13.51383 -29.53289 94.64021 -109.07406 -76.11089 8.15875 12.91436 2.24179 -0.47347 -33.09339 2.90033 -2.98968 -2.54951 1.7178 -1.10097 7.59961 -8.31877 6.27977 4.77756 5.22425
-0.43859 0.56841 -0.40575 908.48251 0 -3.49714 5.19507 0.70117 -0.59974 -38.75535 1.77933 0.58948 34.71404 -12.74477 26.08098 91.2129 102.65216 -79.19705 -17.46613 34.10284 14.08303 -31.33249 95.71492 -107.38492 -73.70459 7.62204 12.40994 2.46591 1.89686 -29.96023 1.84372 -3.31014 -4.08319 1.39582 -0.92775 7.13183 -8.45117 6.52147 4.86457 5.15957
-0.44288 0.56863 -0.40558 909.13533 0 -3.63076 5.48806 0.8231 -0.59128 -39.0409 1.73496 0.40708 35.28403 -12.57424 26.61131 91.59244 105.05319 -78.98532 -15.18694 35.30038 14.61435 -33.13325 96.81124 -106.00601 -71.54312 6.86024 11.94216 2.68666 3.99558 -26.79715 0.85132 -3.62546 -5.50224 1.075 -0.7554 6.69897 -8.57449 6.75681 4.9215 5.03537
-0.44723 0.56886 -0.40538 909.82111 0 -3.76214 5.78453 0.93759 -0.57249 -39.34506 1.69776 0.21025 35.87761 -12.39604 27.15003 91.97029 107.79373 -78.74306 -12.58058 36.59639 15.18469 -35.0816 97.95094 -104.52057 -69.24571 6.06835 11.47588 2.93018 6.39599 -23.37602 -0.25189 -3.98228 -7.10739 0.75137 -0.58764 6.23968 -8.70186 6.99766 4.98296 4.90127
-0.45146 0.56908 -0.40525 910.40855 0 -3.89559 6.0867 1.07637 -0.55132 -39.62703 1.63243 0.04135 36.43557 -12.22593 27.65938 92.32485 109.96837 -78.55254 -10.52964 37.70097 15.68863 -36.70052 98.98116 -103.1058 -67.12044 5.46659 10.9888 3.12574 8.27126 -20.54765 -1.13882 -4.25002 -8.36256 0.43308 -0.40936 5.82102 -8.82458 7.22969 5.05036 4.82085
-0.45538 0.56927 -0.40528 910.7588 0 -4.03787 6.39125 1.27399 -0.5508 -39.83767 1.50228 -0.0474 36.89145 -12.08805 28.10722 92.6421 110.41343 -78.51906 -10.1623 38.27294 15.98991 -37.44101 99.72868 -102.02954 -65.59423 5.26813 10.47876 3.18044 8.58268 -19.327 -1.39939 -4.26843 -8.60099 0.13141 -0.20533 5.52286 -8.93468 7.43447 5.12114 4.85975
-0.45919 0.56946 -0.40538 911.01256 0 -4.18247 6.69937 1.49453 -0.55043 -40.02154 1.34578 -0.10793 37.3071 -11.95909 28.52582 92.94069 110.27158 -78.53894 -10.36844 38.64747 16.22281 -37.84929 100.36676 -101.04561 -64.25677 5.24718 9.95013 3.18844 8.35071 -18.69905 -1.43684 -4.19806 -8.48374 -0.16522 0.00929 5.26889 -9.03855 7.62988 5.19563 4.94811
-0.46305 0.56965 -0.40546 911.30662 0 -4.32576 7.00578 1.70389 -0.54746 -40.21361 1.20202 -0.18165 37.73514 -11.82498 28.95245 93.24873 110.4116 -78.53308 -10.29803 39.10533 16.48885 -38.40018 101.0511 -100.02342 -62.82704 5.14795 9.42283 3.22386 8.36916 -17.79412 -1.57708 -4.17169 -8.53725 -0.46528 0.22039 4.9994 -9.14238 7.82985 5.26693 5.01162
-0.46692 0.56986 -0.40549 911.61222 0 -4.46994 7.31505 1.9178 -0.55169 -40.42763 1.05359 -0.25359 38.19256 -11.6946 29.39915 93.54759 110.50849 -78.53194 -10.27603 39.59414 16.74745 -38.98353 101.74677 -98.9645 -61.40643 5.05513 8.92174 3.23339 8.38644 -16.9257 -1.71533 -4.12997 -8.55822 -0.7605 0.4265 4.70888 -9.25933 8.0295 5.34628 5.08893
-0.47072 0.57003 -0.40563 911.87166 0 -4.6127 7.61782 2.12715 -0.54238 -40.58526 0.90871 -0.32314 38.57538 -11.55868 29.7983 93.8639 110.54812 -78.5341 -10.29686 39.96863 17.0057 -39.42176 102.39516 -98.01165 -60.02009 4.9853 8.36358 3.28531 8.274 -16.12152 -1.80325 -4.09882 -8.55983 -1.06465 0.64509 4.47294 -9.34675 8.22672 5.40952 5.14855
-0.4744 0.57016 -0.40608 912.03403 0 -4.75322 7.90664 2.31852 -0.49501 -40.62156 0.78579 -0.38649 38.78673 -11.40863 30.06839 94.22378 110.57021 -78.53286 -10.29233 40.09308 17.26887 -39.53639 102.92791 -97.33471 -58.66674 4.92889 7.64717 3.47005 7.9097 -15.33596 -1.80645 -4.12204 -8.59944 -1.39425 0.89877 4.38218 -9.35838 8.42578 5.42209 5.13758
-0.478 0.57025 -0.40663 912.15262 0 -4.89182 8.18739 2.5043 -0.43485 -40.59598 0.66641 -0.44945 38.91851 -11.25254 30.29272 94.60465 110.55307 -78.53241 -10.31378 40.10541 17.53576 -39.51727 103.41991 -96.76302 -57.34794 4.88823 6.87575 3.69828 7.43586 -14.59687 -1.76607 -4.15837 -8.63019 -1.73298 1.16401 4.34436 -9.3397 8.62157 5.41893 5.10807
-0.48162 0.57036 -0.40714 912.28739 0 -5.02994 8.46862 2.69231 -0.38111 -40.58077 0.54215 -0.51691 39.07146 -11.09677 30.54152 94.98195 110.5521 -78.5325 -10.32894 40.15785 17.80775 -39.56287 103.93794 -96.14299 -56.02419 4.84228 6.13301 3.90378 7.02795 -13.84403 -1.74549 -4.18643 -8.66138 -2.06799 1.42188 4.27891 -9.33196 8.81464 5.42625 5.09293
-0.48529 0.57048 -0.40764 912.43437 0 -5.17403 8.76433 2.88241 -0.32371 -40.64169 0.43143 -0.56556 39.29033 -10.95028 30.774 95.33138 110.5356 -78.53399 -10.34298 40.25066 18.04872 -39.58146 104.41816 -95.52938 -54.65595 4.79511 5.37265 4.12016 6.53511 -13.07871 -1.71781 -4.22107 -8.6956 -2.40152 1.68917 4.22924 -9.33572 9.02488 5.42001 5.05525
